<?xml version="1.0" encoding="UTF-8" standalone="no"?>
<!-- Created with Inkscape (http://www.inkscape.org/) -->

<svg
   width="151.51654mm"
   height="105.82024mm"
   viewBox="0 0 151.51654 105.82024"
   version="1.1"
   id="svg1"
   inkscape:version="1.3.2 (1:1.3.2+202311252150+091e20ef0f)"
   sodipodi:docname="global-manifolds.svg"
   inkscape:export-filename="global-manifolds.png"
   inkscape:export-xdpi="400"
   inkscape:export-ydpi="400"
   xmlns:inkscape="http://www.inkscape.org/namespaces/inkscape"
   xmlns:sodipodi="http://sodipodi.sourceforge.net/DTD/sodipodi-0.dtd"
   xmlns="http://www.w3.org/2000/svg"
   xmlns:svg="http://www.w3.org/2000/svg">
  <sodipodi:namedview
     id="namedview1"
     pagecolor="#ffffff"
     bordercolor="#000000"
     borderopacity="0.25"
     inkscape:showpageshadow="2"
     inkscape:pageopacity="0.0"
     inkscape:pagecheckerboard="0"
     inkscape:deskcolor="#d1d1d1"
     inkscape:document-units="mm"
     inkscape:zoom="0.95128863"
     inkscape:cx="274.36468"
     inkscape:cy="198.67787"
     inkscape:window-width="1292"
     inkscape:window-height="704"
     inkscape:window-x="74"
     inkscape:window-y="27"
     inkscape:window-maximized="1"
     inkscape:current-layer="layer1" />
  <defs
     id="defs1">
    <marker
       style="overflow:visible"
       id="marker6"
       refX="0"
       refY="0"
       orient="auto-start-reverse"
       inkscape:stockid="Wide, heavy arrow"
       markerWidth="1"
       markerHeight="1"
       viewBox="0 0 1 1"
       inkscape:isstock="true"
       inkscape:collect="always"
       preserveAspectRatio="xMidYMid">
      <path
         style="fill:context-stroke;fill-rule:evenodd;stroke:none"
         d="m 1,0 -3,3 h -2 l 3,-3 -3,-3 h 2 z"
         id="path6" />
    </marker>
    <marker
       style="overflow:visible"
       id="ArrowWideHeavy"
       refX="0"
       refY="0"
       orient="auto-start-reverse"
       inkscape:stockid="Wide, heavy arrow"
       markerWidth="1"
       markerHeight="1"
       viewBox="0 0 1 1"
       inkscape:isstock="true"
       inkscape:collect="always"
       preserveAspectRatio="xMidYMid">
      <path
         style="fill:context-stroke;fill-rule:evenodd;stroke:none"
         d="m -4,0 3,3 H 1 L -2,0 1,-3 h -2 z"
         id="path3" />
    </marker>
    <marker
       style="overflow:visible"
       id="ArrowWideHeavy-7"
       refX="0"
       refY="0"
       orient="67"
       inkscape:stockid="Wide, heavy arrow"
       markerWidth="1"
       markerHeight="1"
       viewBox="0 0 1 1"
       inkscape:isstock="true"
       inkscape:collect="always"
       preserveAspectRatio="xMidYMid">
      <path
         style="fill:context-stroke;fill-rule:evenodd;stroke:none"
         d="m 1,0 -3,3 h -2 l 3,-3 -3,-3 h 2 z"
         id="path3-5" />
    </marker>
    <marker
       style="overflow:visible"
       id="ArrowWideHeavy-0"
       refX="0"
       refY="0"
       orient="auto-start-reverse"
       inkscape:stockid="Wide, heavy arrow"
       markerWidth="1"
       markerHeight="1"
       viewBox="0 0 1 1"
       inkscape:isstock="true"
       inkscape:collect="always"
       preserveAspectRatio="xMidYMid">
      <path
         style="fill:context-stroke;fill-rule:evenodd;stroke:none"
         d="m 1,0 -3,3 h -2 l 3,-3 -3,-3 h 2 z"
         id="path3-9" />
    </marker>
    <marker
       style="overflow:visible"
       id="ArrowWideHeavy-0-2"
       refX="0"
       refY="0"
       orient="auto-start-reverse"
       inkscape:stockid="Wide, heavy arrow"
       markerWidth="1"
       markerHeight="1"
       viewBox="0 0 1 1"
       inkscape:isstock="true"
       inkscape:collect="always"
       preserveAspectRatio="xMidYMid">
      <path
         style="fill:context-stroke;fill-rule:evenodd;stroke:none"
         d="m 1,0 -3,3 h -2 l 3,-3 -3,-3 h 2 z"
         id="path3-9-0" />
    </marker>
  </defs>
  <g
     inkscape:label="Layer 1"
     inkscape:groupmode="layer"
     id="layer1"
     transform="translate(-23.9221, -21.3413)">
    <path
       style="fill:none;fill-opacity:1;stroke:#296400;stroke-width:0.827;stroke-linecap:butt;stroke-dasharray:1.65400004, 0.82700002;stroke-opacity:1;marker-mid:url(#ArrowWideHeavy);stroke-dashoffset:0"
       d="m 92.518812,75.888618 h 55.365468 l 13.75275,-0.287127"
       id="path2"
       sodipodi:nodetypes="ccc" />
    <path
       style="fill:none;fill-opacity:1;stroke:#ff0f00;stroke-width:0.827;stroke-linecap:butt;stroke-dasharray:1.65400004, 0.82700002;stroke-dashoffset:0;stroke-opacity:1;marker-mid:url(#ArrowWideHeavy-0)"
       d="M 93.435637,75.605845 109.35744,52.59848 128.56494,24.8432"
       id="path2-1"
       sodipodi:nodetypes="ccc" />
    <path
       style="fill:none;fill-opacity:1;stroke:#ff0f00;stroke-width:0.827;stroke-linecap:butt;stroke-dasharray:1.65400004, 0.82700002;stroke-dashoffset:0;stroke-opacity:1;marker-mid:url(#ArrowWideHeavy-0-2);stroke-linejoin:bevel"
       d="M 92.76576,75.823561 76.8827,98.774941 57.636456,126.5862"
       id="path2-1-3"
       sodipodi:nodetypes="ccc" />
    <path
       style="fill:none;fill-opacity:1;stroke:#296400;stroke-width:0.827;stroke-linecap:square;stroke-linejoin:bevel;stroke-dasharray:none;stroke-dashoffset:0;stroke-opacity:1;marker-mid:url(#ArrowWideHeavy)"
       d="m 93.100268,75.989031 c 26.428122,0.300322 33.101642,-4.318826 37.125912,-9.369567 2.09283,-2.626651 6.47946,-6.873758 11.75548,-7.118346 6.25039,0.274963 6.74452,4.24093 8.10924,10.462545 1.8478,8.423946 8.04693,10.65982 10.9011,12.56009"
       id="path9"
       sodipodi:nodetypes="cscsc" />
    <path
       style="fill:none;fill-opacity:1;stroke:#296400;stroke-width:0.827;stroke-linecap:square;stroke-linejoin:bevel;stroke-dasharray:none;stroke-dashoffset:0;stroke-opacity:1;marker-mid:url(#ArrowWideHeavy-7)"
       d="M 92.459283,75.016185 C 64.174725,73.683258 64.459883,72.869061 52.143411,47.329373 43.735269,28.950052 31.825713,48.406265 26.694699,67.234117"
       id="path10"
       sodipodi:nodetypes="ccc" />
    <ellipse
       style="fill:none;fill-opacity:1;stroke:#020400;stroke-width:0.827;stroke-linecap:square;stroke-linejoin:bevel;stroke-dasharray:1.654, 3.308;stroke-dashoffset:0;stroke-opacity:1"
       id="path11"
       cx="92.103882"
       cy="74.629166"
       rx="30.988293"
       ry="30.219688" />
    <g
       id="g14"
       transform="matrix(0.86258666,0,0,0.86258666,160.54447,66.91001)"
       style="fill:#296400;fill-opacity:1;stroke:none;stroke-opacity:1">
      <g
         style="fill:#296400;fill-opacity:1;stroke:none;stroke-opacity:1"
         id="g5">
        <g
           id="use4"
           transform="translate(1.993,8.8549995)"
           style="fill:#296400;fill-opacity:1;stroke:none;stroke-opacity:1">
          <path
             style="fill:#296400;fill-opacity:1;stroke:none;stroke-opacity:1"
             d="m 2.578125,-3.34375 c 0.25,0 0.734375,0 1.078125,0.203125 0.484375,0.3125 0.515625,0.84375 0.515625,0.90625 0.015625,0.140625 0.015625,0.265625 0.1875,0.265625 0.171875,0 0.171875,-0.140625 0.171875,-0.3125 v -2.703125 c 0,-0.15625 0,-0.3125 -0.171875,-0.3125 -0.171875,0 -0.1875,0.140625 -0.1875,0.21875 -0.0625,1.296875 -1.078125,1.359375 -1.59375,1.375 V -5.8125 c 0,-0.671875 0.1875,-0.671875 0.4375,-0.671875 h 0.46875 c 1.34375,0 2.015625,0.6875 2.078125,1.375 C 5.578125,-5.03125 5.578125,-4.875 5.734375,-4.875 5.90625,-4.875 5.90625,-5.03125 5.90625,-5.203125 V -6.5 c 0,-0.3125 -0.015625,-0.328125 -0.328125,-0.328125 h -5.09375 c -0.1875,0 -0.34375,0 -0.34375,0.171875 0,0.171875 0.1875,0.171875 0.265625,0.171875 0.578125,0 0.609375,0.078125 0.609375,0.578125 v 4.984375 c 0,0.46875 -0.03125,0.578125 -0.5625,0.578125 -0.140625,0 -0.3125,0 -0.3125,0.171875 C 0.140625,0 0.296875,0 0.484375,0 h 5.28125 c 0.1875,0 0.28125,0 0.3125,-0.140625 C 6.09375,-0.15625 6.375,-1.8125 6.375,-1.859375 c 0,-0.109375 -0.09375,-0.1875 -0.171875,-0.1875 -0.140625,0 -0.1875,0.140625 -0.1875,0.140625 -0.046875,0.265625 -0.15625,0.6875 -0.875,1.109375 -0.53125,0.3125 -1.03125,0.453125 -1.578125,0.453125 H 3.015625 c -0.25,0 -0.4375,0 -0.4375,-0.671875 z M 5.5625,-6.484375 V -6 C 5.390625,-6.1875 5.203125,-6.34375 5,-6.484375 Z M 3.625,-3.5625 C 3.78125,-3.625 4,-3.78125 4.171875,-3.984375 V -3.15625 C 3.9375,-3.421875 3.625,-3.546875 3.625,-3.546875 Z m -2.265625,-2.375 c 0,-0.109375 0,-0.359375 -0.078125,-0.546875 h 1.0625 C 2.234375,-6.25 2.234375,-5.921875 2.234375,-5.828125 V -1 c 0,0.359375 0.0625,0.5625 0.109375,0.65625 h -1.0625 c 0.078125,-0.1875 0.078125,-0.4375 0.078125,-0.546875 z m 3.71875,5.59375 v -0.015625 c 0.3125,-0.15625 0.578125,-0.375 0.78125,-0.546875 0,0.03125 -0.078125,0.484375 -0.09375,0.5625 z m 0,0"
             id="path12" />
        </g>
      </g>
      <g
         style="fill:#296400;fill-opacity:1;stroke:none;stroke-opacity:1"
         id="g6">
        <g
           id="use5"
           transform="translate(8.6339998,5.2399998)"
           style="fill:#296400;fill-opacity:1;stroke:none;stroke-opacity:1">
          <path
             style="fill:#296400;fill-opacity:1;stroke:none;stroke-opacity:1"
             d="m 3,-2.625 c -0.171875,0.046875 -0.296875,0.1875 -0.296875,0.328125 0,0.171875 0.140625,0.234375 0.234375,0.234375 0.078125,0 0.34375,-0.046875 0.34375,-0.40625 0,-0.453125 -0.5,-0.609375 -0.9375,-0.609375 -1.078125,0 -1.28125,0.8125 -1.28125,1.015625 0,0.265625 0.15625,0.4375 0.25,0.515625 0.171875,0.140625 0.296875,0.171875 0.78125,0.25 0.15625,0.03125 0.59375,0.109375 0.59375,0.453125 0,0.125 -0.078125,0.390625 -0.359375,0.5625 C 2.046875,-0.125 1.703125,-0.125 1.625,-0.125 1.34375,-0.125 0.953125,-0.1875 0.78125,-0.421875 1.015625,-0.453125 1.171875,-0.625 1.171875,-0.8125 c 0,-0.171875 -0.125,-0.265625 -0.265625,-0.265625 -0.203125,0 -0.40625,0.171875 -0.40625,0.46875 0,0.421875 0.4375,0.671875 1.109375,0.671875 1.296875,0 1.53125,-0.875 1.53125,-1.140625 0,-0.640625 -0.703125,-0.765625 -0.96875,-0.8125 -0.0625,-0.015625 -0.234375,-0.046875 -0.28125,-0.0625 -0.25,-0.046875 -0.375,-0.1875 -0.375,-0.34375 0,-0.15625 0.125,-0.34375 0.28125,-0.453125 0.1875,-0.109375 0.421875,-0.125 0.546875,-0.125 0.140625,0 0.5,0.015625 0.65625,0.25 z m 0,0"
             id="path7" />
        </g>
      </g>
    </g>
    <g
       inkscape:label=""
       transform="matrix(0.95616538,0,0,0.95616538,124.50511,50.143794)"
       id="g20">
      <g
         id="surface1"
         transform="matrix(0.352778,0,0,0.352778,-0.752695,-0.715036)">
        <g
           id="g22"
           transform="matrix(2.6427984,0,0,2.6427984,9.0721554,-86.692529)"
           style="fill:#ff0f00;fill-opacity:1">
          <g
             style="fill:#ff0f00;fill-opacity:1"
             id="g17">
            <g
               id="g16"
               transform="translate(1.993,8.8549995)"
               style="fill:#ff0f00;fill-opacity:1">
              <path
                 style="fill:#ff0f00;fill-opacity:1;stroke:none"
                 d="m 2.578125,-3.34375 c 0.25,0 0.734375,0 1.078125,0.203125 0.484375,0.3125 0.515625,0.84375 0.515625,0.90625 0.015625,0.140625 0.015625,0.265625 0.1875,0.265625 0.171875,0 0.171875,-0.140625 0.171875,-0.3125 v -2.703125 c 0,-0.15625 0,-0.3125 -0.171875,-0.3125 -0.171875,0 -0.1875,0.140625 -0.1875,0.21875 -0.0625,1.296875 -1.078125,1.359375 -1.59375,1.375 V -5.8125 c 0,-0.671875 0.1875,-0.671875 0.4375,-0.671875 h 0.46875 c 1.34375,0 2.015625,0.6875 2.078125,1.375 C 5.578125,-5.03125 5.578125,-4.875 5.734375,-4.875 5.90625,-4.875 5.90625,-5.03125 5.90625,-5.203125 V -6.5 c 0,-0.3125 -0.015625,-0.328125 -0.328125,-0.328125 h -5.09375 c -0.1875,0 -0.34375,0 -0.34375,0.171875 0,0.171875 0.1875,0.171875 0.265625,0.171875 0.578125,0 0.609375,0.078125 0.609375,0.578125 v 4.984375 c 0,0.46875 -0.03125,0.578125 -0.5625,0.578125 -0.140625,0 -0.3125,0 -0.3125,0.171875 C 0.140625,0 0.296875,0 0.484375,0 h 5.28125 c 0.1875,0 0.28125,0 0.3125,-0.140625 C 6.09375,-0.15625 6.375,-1.8125 6.375,-1.859375 c 0,-0.109375 -0.09375,-0.1875 -0.171875,-0.1875 -0.140625,0 -0.1875,0.140625 -0.1875,0.140625 -0.046875,0.265625 -0.15625,0.6875 -0.875,1.109375 -0.53125,0.3125 -1.03125,0.453125 -1.578125,0.453125 H 3.015625 c -0.25,0 -0.4375,0 -0.4375,-0.671875 z M 5.5625,-6.484375 V -6 C 5.390625,-6.1875 5.203125,-6.34375 5,-6.484375 Z M 3.625,-3.5625 C 3.78125,-3.625 4,-3.78125 4.171875,-3.984375 V -3.15625 C 3.9375,-3.421875 3.625,-3.546875 3.625,-3.546875 Z m -2.265625,-2.375 c 0,-0.109375 0,-0.359375 -0.078125,-0.546875 h 1.0625 C 2.234375,-6.25 2.234375,-5.921875 2.234375,-5.828125 V -1 c 0,0.359375 0.0625,0.5625 0.109375,0.65625 h -1.0625 c 0.078125,-0.1875 0.078125,-0.4375 0.078125,-0.546875 z m 3.71875,5.59375 v -0.015625 c 0.3125,-0.15625 0.578125,-0.375 0.78125,-0.546875 0,0.03125 -0.078125,0.484375 -0.09375,0.5625 z m 0,0"
                 id="path16" />
            </g>
          </g>
          <g
             style="fill:#ff0f00;fill-opacity:1"
             id="g19">
            <g
               id="g18"
               transform="translate(8.6339998,5.2399998)"
               style="fill:#ff0f00;fill-opacity:1">
              <path
                 style="fill:#ff0f00;fill-opacity:1;stroke:none"
                 d="M 2.953125,-1.125 C 2.90625,-0.984375 2.84375,-0.71875 2.84375,-0.71875 2.703125,-0.5 2.421875,-0.125 2,-0.125 c -0.484375,0 -0.484375,-0.453125 -0.484375,-0.578125 0,-0.40625 0.1875,-0.90625 0.390625,-1.421875 C 1.953125,-2.265625 2,-2.359375 2,-2.46875 2,-2.84375 1.6875,-3.078125 1.34375,-3.078125 0.640625,-3.078125 0.328125,-2.125 0.328125,-2 c 0,0.078125 0.09375,0.078125 0.125,0.078125 0.09375,0 0.09375,-0.03125 0.125,-0.109375 0.15625,-0.5625 0.46875,-0.84375 0.734375,-0.84375 0.125,0 0.171875,0.078125 0.171875,0.234375 0,0.171875 -0.046875,0.3125 -0.125,0.46875 -0.375,0.96875 -0.375,1.171875 -0.375,1.359375 0,0.109375 0,0.4375 0.265625,0.65625 0.203125,0.171875 0.46875,0.21875 0.71875,0.21875 0.4375,0 0.671875,-0.234375 0.90625,-0.453125 C 3.03125,0.0625 3.484375,0.0625 3.578125,0.0625 3.8125,0.0625 4,-0.0625 4.125,-0.296875 4.28125,-0.578125 4.375,-0.96875 4.375,-1 c 0,-0.09375 -0.09375,-0.09375 -0.109375,-0.09375 -0.109375,0 -0.109375,0.03125 -0.15625,0.21875 -0.09375,0.328125 -0.21875,0.75 -0.515625,0.75 -0.171875,0 -0.234375,-0.15625 -0.234375,-0.34375 0,-0.109375 0.0625,-0.375 0.109375,-0.546875 0.046875,-0.1875 0.125,-0.46875 0.15625,-0.625 l 0.15625,-0.625 C 3.828125,-2.4375 3.90625,-2.75 3.90625,-2.78125 3.90625,-2.921875 3.796875,-3 3.671875,-3 c -0.25,0 -0.3125,0.203125 -0.359375,0.421875 z m 0,0"
                 id="path17" />
            </g>
          </g>
        </g>
      </g>
    </g>
    <path
       style="fill:none;fill-opacity:1;stroke:#296400;stroke-width:0.827;stroke-linecap:butt;stroke-linejoin:bevel;stroke-dasharray:1.65400004, 0.82700002;stroke-opacity:1;marker-mid:url(#ArrowWideHeavy);stroke-dashoffset:0"
       d="m 93.929229,75.885091 -47.453622,-0.02534 -20.087454,0.0269"
       id="path2-9"
       sodipodi:nodetypes="ccc" />
    <path
       style="fill:none;fill-opacity:1;stroke:#ff0000;stroke-width:0.827;stroke-linecap:square;stroke-linejoin:bevel;stroke-dasharray:none;stroke-opacity:1;marker-mid:url(#marker6)"
       d="M 93.047202,75.968629 C 106.31045,54.880285 116.24975,65.225893 120.25026,59.149473 c 5.34573,-8.119693 15.72339,-12.511331 20.95907,-15.06442 14.30187,-6.974049 14.27536,-9.683381 21.85002,-3.93342"
       id="path13"
       sodipodi:nodetypes="cssc" />
    <path
       style="fill:none;fill-opacity:1;stroke:#ff0000;stroke-width:0.827;stroke-linecap:square;stroke-linejoin:bevel;stroke-dasharray:0.827, 0.827;stroke-dashoffset:0;stroke-opacity:1;marker-mid:url(#marker6)"
       d="m 93.146421,76.396767 c -35.990097,53.083993 -15.20884,46.438923 49.471259,40.925193 1.05585,-0.09 23.42531,-2.37841 17.48861,4.84188"
       id="path8"
       sodipodi:nodetypes="csc" />
    <ellipse
       style="fill:#000000;fill-opacity:1;stroke:none;stroke-width:0.0678215;stroke-linecap:round"
       id="path1"
       cx="93.009354"
       cy="75.759727"
       rx="2.5972064"
       ry="2.3982704" />
    <g
       inkscape:label=""
       transform="matrix(3.0347715,0,0,3.0347715,93.945372,76.85047)"
       id="g72">
      <g
         id="g71"
         transform="matrix(0.352778,0,0,0.352778,-0.807817,-0.640336)">
        <g
           style="fill:#000000;fill-opacity:1"
           id="g68">
          <g
             id="g67"
             transform="translate(1.993,8.8520002)">
            <path
               style="stroke:none"
               d="M 3.328125,-3.015625 C 3.390625,-3.265625 3.625,-4.1875 4.3125,-4.1875 c 0.046875,0 0.296875,0 0.5,0.125 C 4.53125,-4 4.34375,-3.765625 4.34375,-3.515625 c 0,0.15625 0.109375,0.34375 0.375,0.34375 0.21875,0 0.53125,-0.171875 0.53125,-0.578125 0,-0.515625 -0.578125,-0.65625 -0.921875,-0.65625 -0.578125,0 -0.921875,0.53125 -1.046875,0.75 -0.25,-0.65625 -0.78125,-0.75 -1.078125,-0.75 -1.03125,0 -1.609375,1.28125 -1.609375,1.53125 0,0.109375 0.109375,0.109375 0.125,0.109375 0.078125,0 0.109375,-0.03125 0.125,-0.109375 0.34375,-1.0625 1,-1.3125 1.34375,-1.3125 0.1875,0 0.53125,0.09375 0.53125,0.671875 0,0.3125 -0.171875,0.96875 -0.53125,2.375 -0.15625,0.609375 -0.515625,1.03125 -0.953125,1.03125 -0.0625,0 -0.28125,0 -0.5,-0.125 0.25,-0.0625 0.46875,-0.265625 0.46875,-0.546875 0,-0.265625 -0.21875,-0.34375 -0.359375,-0.34375 -0.3125,0 -0.546875,0.25 -0.546875,0.578125 0,0.453125 0.484375,0.65625 0.921875,0.65625 0.671875,0 1.03125,-0.703125 1.046875,-0.75 0.125,0.359375 0.484375,0.75 1.078125,0.75 1.03125,0 1.59375,-1.28125 1.59375,-1.53125 0,-0.109375 -0.078125,-0.109375 -0.109375,-0.109375 -0.09375,0 -0.109375,0.046875 -0.140625,0.109375 -0.328125,1.078125 -1,1.3125 -1.3125,1.3125 -0.390625,0 -0.546875,-0.3125 -0.546875,-0.65625 0,-0.21875 0.046875,-0.4375 0.15625,-0.875 z m 0,0"
               id="path67" />
          </g>
        </g>
        <g
           style="fill:#000000;fill-opacity:1"
           id="g70">
          <g
             id="g69"
             transform="translate(7.6859999,5.237)">
            <path
               style="stroke:none"
               d="m 3.65625,-2 c 0.125,-0.0625 0.125,-0.09375 0.125,-0.125 0,-0.0625 -0.0625,-0.09375 -0.09375,-0.09375 C 3.65625,-2.21875 2.5,-2 2.3125,-1.953125 L 2.140625,-3.234375 C 2.125,-3.34375 2.125,-3.421875 2.03125,-3.421875 c -0.0625,0 -0.09375,0.0625 -0.109375,0.171875 l -0.15625,1.296875 -1.28125,-0.25 C 0.40625,-2.21875 0.390625,-2.21875 0.390625,-2.21875 c -0.046875,0 -0.109375,0.03125 -0.109375,0.09375 0,0.03125 0.015625,0.046875 0.046875,0.078125 0.015625,0.015625 1.125,0.53125 1.28125,0.59375 L 0.96875,-0.296875 C 0.921875,-0.203125 0.921875,-0.1875 0.921875,-0.1875 c 0,0.0625 0.046875,0.109375 0.09375,0.109375 0.0625,0 0.203125,-0.171875 0.46875,-0.484375 0.1875,-0.1875 0.375,-0.375 0.546875,-0.5625 0.34375,0.34375 0.84375,0.890625 0.921875,0.96875 0.0625,0.0625 0.0625,0.078125 0.109375,0.078125 0.046875,0 0.09375,-0.046875 0.09375,-0.109375 0,-0.015625 -0.09375,-0.171875 -0.140625,-0.265625 L 2.46875,-1.4375 Z m 0,0"
               id="path68" />
          </g>
        </g>
      </g>
    </g>
  </g>
  <g
     id="g51"
     transform="matrix(2.2829316,0,0,2.2829316,-131.10789,-111.30045)"
     style="fill:#296400;fill-opacity:1">
    <g
       inkscape:label=""
       transform="translate(109.83285,62.228786)"
       id="g50"
       style="fill:#296400;fill-opacity:1">
      <g
         id="g49"
         transform="matrix(0.352778,0,0,0.352778,-0.730647,-0.698721)"
         style="fill:#296400;fill-opacity:1">
        <g
           style="fill:#296400;fill-opacity:1"
           id="g11">
          <g
             id="use10"
             transform="translate(1.993,9.4650002)"
             style="fill:#296400;fill-opacity:1">
            <path
               style="fill:#296400;fill-opacity:1;stroke:none"
               d="m 9.3125,-6.015625 c 0.125,-0.328125 0.21875,-0.4375 0.40625,-0.46875 0.125,-0.015625 0.171875,-0.09375 0.171875,-0.171875 0,-0.171875 -0.15625,-0.171875 -0.328125,-0.171875 H 8.140625 c -0.171875,0 -0.328125,0 -0.328125,0.171875 0,0.09375 0.078125,0.171875 0.15625,0.171875 0.234375,0.03125 0.46875,0.046875 0.46875,0.71875 C 8.4375,-4.90625 8,-3.625 7.5,-2.15625 7.421875,-2.34375 6.234375,-5.390625 6.203125,-6.234375 c 0.03125,-0.0625 0.234375,-0.21875 0.46875,-0.25 0.0625,0 0.21875,-0.015625 0.21875,-0.171875 0,-0.171875 -0.15625,-0.171875 -0.328125,-0.171875 H 4.15625 c -0.171875,0 -0.34375,0 -0.34375,0.171875 0,0.03125 0.03125,0.140625 0.171875,0.171875 0.171875,0.03125 0.359375,0.046875 0.5625,0.578125 0.125,0.296875 0.265625,0.65625 0.375,1 L 3.625,-1.921875 2.921875,-3.953125 c -0.234375,-0.6875 -0.625,-1.921875 -0.625,-2.265625 0,-0.109375 0.203125,-0.234375 0.375,-0.265625 0.03125,0 0.1875,-0.015625 0.1875,-0.171875 0,-0.171875 -0.15625,-0.171875 -0.34375,-0.171875 H 0.40625 c -0.171875,0 -0.328125,0 -0.328125,0.171875 0,0.140625 0.140625,0.171875 0.1875,0.171875 C 0.5,-6.453125 0.625,-6.140625 0.65625,-6.03125 l 2.140625,5.984375 C 2.84375,0.109375 2.875,0.1875 2.984375,0.1875 3.09375,0.1875 3.125,0.125 3.1875,-0.015625 l 1.921875,-4.40625 1.65625,4.375 C 6.828125,0.125 6.859375,0.1875 6.984375,0.1875 7.09375,0.1875 7.125,0.109375 7.171875,-0.046875 Z M 9.140625,-6.484375 C 9.046875,-6.3125 8.90625,-5.90625 8.796875,-5.625 c 0,-0.359375 0,-0.59375 -0.15625,-0.859375 z m -4.25,0.5 c -0.0625,-0.171875 -0.140625,-0.34375 -0.25,-0.5 h 1.3125 c -0.09375,0.078125 -0.09375,0.25 -0.09375,0.296875 0,0.78125 1.328125,4.203125 1.5,4.625 -0.15625,0.4375 -0.296875,0.8125 -0.375,1.078125 z M 1.03125,-6.015625 C 1,-6.125 0.921875,-6.3125 0.828125,-6.484375 h 1.1875 c -0.03125,0.046875 -0.0625,0.09375 -0.0625,0.25 0,0.734375 1.203125,4.0625 1.46875,4.796875 l -0.40625,0.96875 z m 0,0"
               id="path44" />
          </g>
        </g>
        <g
           style="fill:#296400;fill-opacity:1"
           id="g45">
          <g
             id="use11"
             transform="translate(11.955,5.849)"
             style="fill:#296400;fill-opacity:1">
            <path
               style="fill:#296400;fill-opacity:1;stroke:none"
               d="m 3,-2.625 c -0.171875,0.046875 -0.296875,0.1875 -0.296875,0.328125 0,0.171875 0.140625,0.234375 0.234375,0.234375 0.078125,0 0.34375,-0.046875 0.34375,-0.40625 0,-0.453125 -0.5,-0.609375 -0.9375,-0.609375 -1.078125,0 -1.28125,0.8125 -1.28125,1.015625 0,0.265625 0.15625,0.4375 0.25,0.515625 0.171875,0.140625 0.296875,0.171875 0.78125,0.25 0.15625,0.03125 0.59375,0.109375 0.59375,0.453125 0,0.125 -0.078125,0.390625 -0.359375,0.5625 C 2.046875,-0.125 1.703125,-0.125 1.625,-0.125 1.34375,-0.125 0.953125,-0.1875 0.78125,-0.421875 1.015625,-0.453125 1.171875,-0.625 1.171875,-0.8125 c 0,-0.171875 -0.125,-0.265625 -0.265625,-0.265625 -0.203125,0 -0.40625,0.171875 -0.40625,0.46875 0,0.421875 0.4375,0.671875 1.109375,0.671875 1.296875,0 1.53125,-0.875 1.53125,-1.140625 0,-0.640625 -0.703125,-0.765625 -0.96875,-0.8125 -0.0625,-0.015625 -0.234375,-0.046875 -0.28125,-0.0625 -0.25,-0.046875 -0.375,-0.1875 -0.375,-0.34375 0,-0.15625 0.125,-0.34375 0.28125,-0.453125 0.1875,-0.109375 0.421875,-0.125 0.546875,-0.125 0.140625,0 0.5,0.015625 0.65625,0.25 z m 0,0"
               id="path45" />
          </g>
        </g>
        <g
           style="fill:#296400;fill-opacity:1"
           id="g46">
          <g
             id="use12"
             transform="translate(16.214001,9.4650002)"
             style="fill:#296400;fill-opacity:1">
            <path
               style="fill:#296400;fill-opacity:1;stroke:none"
               d="m 3.296875,2.390625 c 0,-0.03125 0,-0.046875 -0.171875,-0.21875 C 1.890625,0.921875 1.5625,-0.96875 1.5625,-2.5 c 0,-1.734375 0.375,-3.46875 1.609375,-4.703125 0.125,-0.125 0.125,-0.140625 0.125,-0.171875 0,-0.078125 -0.03125,-0.109375 -0.09375,-0.109375 -0.109375,0 -1,0.6875 -1.59375,1.953125 -0.5,1.09375 -0.625,2.203125 -0.625,3.03125 0,0.78125 0.109375,1.984375 0.65625,3.125 C 2.25,1.84375 3.09375,2.5 3.203125,2.5 c 0.0625,0 0.09375,-0.03125 0.09375,-0.109375 z m 0,0"
               id="path18" />
          </g>
        </g>
        <g
           style="fill:#296400;fill-opacity:1"
           id="g47">
          <g
             id="use13"
             transform="translate(20.087999,9.4650002)"
             style="fill:#296400;fill-opacity:1">
            <path
               style="fill:#296400;fill-opacity:1;stroke:none"
               d="M 3.328125,-3.015625 C 3.390625,-3.265625 3.625,-4.1875 4.3125,-4.1875 c 0.046875,0 0.296875,0 0.5,0.125 C 4.53125,-4 4.34375,-3.765625 4.34375,-3.515625 c 0,0.15625 0.109375,0.34375 0.375,0.34375 0.21875,0 0.53125,-0.171875 0.53125,-0.578125 0,-0.515625 -0.578125,-0.65625 -0.921875,-0.65625 -0.578125,0 -0.921875,0.53125 -1.046875,0.75 -0.25,-0.65625 -0.78125,-0.75 -1.078125,-0.75 -1.03125,0 -1.609375,1.28125 -1.609375,1.53125 0,0.109375 0.109375,0.109375 0.125,0.109375 0.078125,0 0.109375,-0.03125 0.125,-0.109375 0.34375,-1.0625 1,-1.3125 1.34375,-1.3125 0.1875,0 0.53125,0.09375 0.53125,0.671875 0,0.3125 -0.171875,0.96875 -0.53125,2.375 -0.15625,0.609375 -0.515625,1.03125 -0.953125,1.03125 -0.0625,0 -0.28125,0 -0.5,-0.125 0.25,-0.0625 0.46875,-0.265625 0.46875,-0.546875 0,-0.265625 -0.21875,-0.34375 -0.359375,-0.34375 -0.3125,0 -0.546875,0.25 -0.546875,0.578125 0,0.453125 0.484375,0.65625 0.921875,0.65625 0.671875,0 1.03125,-0.703125 1.046875,-0.75 0.125,0.359375 0.484375,0.75 1.078125,0.75 1.03125,0 1.59375,-1.28125 1.59375,-1.53125 0,-0.109375 -0.078125,-0.109375 -0.109375,-0.109375 -0.09375,0 -0.109375,0.046875 -0.140625,0.109375 -0.328125,1.078125 -1,1.3125 -1.3125,1.3125 -0.390625,0 -0.546875,-0.3125 -0.546875,-0.65625 0,-0.21875 0.046875,-0.4375 0.15625,-0.875 z m 0,0"
               id="path19" />
          </g>
        </g>
        <g
           style="fill:#296400;fill-opacity:1"
           id="g15">
          <g
             id="use14"
             transform="translate(25.782,5.849)"
             style="fill:#296400;fill-opacity:1">
            <path
               style="fill:#296400;fill-opacity:1;stroke:none"
               d="m 3.65625,-2 c 0.125,-0.0625 0.125,-0.09375 0.125,-0.125 0,-0.0625 -0.0625,-0.09375 -0.09375,-0.09375 C 3.65625,-2.21875 2.5,-2 2.3125,-1.953125 L 2.140625,-3.234375 C 2.125,-3.34375 2.125,-3.421875 2.03125,-3.421875 c -0.0625,0 -0.09375,0.0625 -0.109375,0.171875 l -0.15625,1.296875 -1.28125,-0.25 C 0.40625,-2.21875 0.390625,-2.21875 0.390625,-2.21875 c -0.046875,0 -0.109375,0.03125 -0.109375,0.09375 0,0.03125 0.015625,0.046875 0.046875,0.078125 0.015625,0.015625 1.125,0.53125 1.28125,0.59375 L 0.96875,-0.296875 C 0.921875,-0.203125 0.921875,-0.1875 0.921875,-0.1875 c 0,0.0625 0.046875,0.109375 0.09375,0.109375 0.0625,0 0.203125,-0.171875 0.46875,-0.484375 0.1875,-0.1875 0.375,-0.375 0.546875,-0.5625 0.34375,0.34375 0.84375,0.890625 0.921875,0.96875 0.0625,0.0625 0.0625,0.078125 0.109375,0.078125 0.046875,0 0.09375,-0.046875 0.09375,-0.109375 0,-0.015625 -0.09375,-0.171875 -0.140625,-0.265625 L 2.46875,-1.4375 Z m 0,0"
               id="path20" />
          </g>
        </g>
        <g
           style="fill:#296400;fill-opacity:1"
           id="g48">
          <g
             id="use15"
             transform="translate(30.362,9.4650002)"
             style="fill:#296400;fill-opacity:1">
            <path
               style="fill:#296400;fill-opacity:1;stroke:none"
               d="m 2.875,-2.5 c 0,-0.765625 -0.109375,-1.96875 -0.65625,-3.109375 -0.59375,-1.21875 -1.453125,-1.875 -1.546875,-1.875 -0.0625,0 -0.109375,0.046875 -0.109375,0.109375 0,0.03125 0,0.046875 0.1875,0.234375 0.984375,0.984375 1.546875,2.5625 1.546875,4.640625 0,1.71875 -0.359375,3.46875 -1.59375,4.71875 C 0.5625,2.34375 0.5625,2.359375 0.5625,2.390625 0.5625,2.453125 0.609375,2.5 0.671875,2.5 0.765625,2.5 1.671875,1.8125 2.25,0.546875 2.765625,-0.546875 2.875,-1.65625 2.875,-2.5 Z m 0,0"
               id="path21" />
          </g>
        </g>
      </g>
    </g>
  </g>
  <g
     inkscape:label=""
     transform="matrix(2.2153162,0,0,2.2153162,123.04565,8.3133708)"
     id="g65"
     style="fill:#ff0000;fill-opacity:1">
    <g
       id="g64"
       transform="matrix(0.352778,0,0,0.352778,-0.730647,-0.698721)"
       style="fill:#ff0000;fill-opacity:1">
      <g
         style="fill:#ff0000;fill-opacity:1"
         id="g53">
        <g
           id="g52"
           transform="translate(1.993,9.4650002)"
           style="fill:#ff0000;fill-opacity:1">
          <path
             style="fill:#ff0000;fill-opacity:1;stroke:none"
             d="m 9.3125,-6.015625 c 0.125,-0.328125 0.21875,-0.4375 0.40625,-0.46875 0.125,-0.015625 0.171875,-0.09375 0.171875,-0.171875 0,-0.171875 -0.15625,-0.171875 -0.328125,-0.171875 H 8.140625 c -0.171875,0 -0.328125,0 -0.328125,0.171875 0,0.09375 0.078125,0.171875 0.15625,0.171875 0.234375,0.03125 0.46875,0.046875 0.46875,0.71875 C 8.4375,-4.90625 8,-3.625 7.5,-2.15625 7.421875,-2.34375 6.234375,-5.390625 6.203125,-6.234375 c 0.03125,-0.0625 0.234375,-0.21875 0.46875,-0.25 0.0625,0 0.21875,-0.015625 0.21875,-0.171875 0,-0.171875 -0.15625,-0.171875 -0.328125,-0.171875 H 4.15625 c -0.171875,0 -0.34375,0 -0.34375,0.171875 0,0.03125 0.03125,0.140625 0.171875,0.171875 0.171875,0.03125 0.359375,0.046875 0.5625,0.578125 0.125,0.296875 0.265625,0.65625 0.375,1 L 3.625,-1.921875 2.921875,-3.953125 c -0.234375,-0.6875 -0.625,-1.921875 -0.625,-2.265625 0,-0.109375 0.203125,-0.234375 0.375,-0.265625 0.03125,0 0.1875,-0.015625 0.1875,-0.171875 0,-0.171875 -0.15625,-0.171875 -0.34375,-0.171875 H 0.40625 c -0.171875,0 -0.328125,0 -0.328125,0.171875 0,0.140625 0.140625,0.171875 0.1875,0.171875 C 0.5,-6.453125 0.625,-6.140625 0.65625,-6.03125 l 2.140625,5.984375 C 2.84375,0.109375 2.875,0.1875 2.984375,0.1875 3.09375,0.1875 3.125,0.125 3.1875,-0.015625 l 1.921875,-4.40625 1.65625,4.375 C 6.828125,0.125 6.859375,0.1875 6.984375,0.1875 7.09375,0.1875 7.125,0.109375 7.171875,-0.046875 Z M 9.140625,-6.484375 C 9.046875,-6.3125 8.90625,-5.90625 8.796875,-5.625 c 0,-0.359375 0,-0.59375 -0.15625,-0.859375 z m -4.25,0.5 c -0.0625,-0.171875 -0.140625,-0.34375 -0.25,-0.5 h 1.3125 c -0.09375,0.078125 -0.09375,0.25 -0.09375,0.296875 0,0.78125 1.328125,4.203125 1.5,4.625 -0.15625,0.4375 -0.296875,0.8125 -0.375,1.078125 z M 1.03125,-6.015625 C 1,-6.125 0.921875,-6.3125 0.828125,-6.484375 h 1.1875 c -0.03125,0.046875 -0.0625,0.09375 -0.0625,0.25 0,0.734375 1.203125,4.0625 1.46875,4.796875 l -0.40625,0.96875 z m 0,0"
             id="path51" />
        </g>
      </g>
      <g
         style="fill:#ff0000;fill-opacity:1"
         id="g55">
        <g
           id="g54"
           transform="translate(11.955,5.849)"
           style="fill:#ff0000;fill-opacity:1">
          <path
             style="fill:#ff0000;fill-opacity:1;stroke:none"
             d="M 2.953125,-1.125 C 2.90625,-0.984375 2.84375,-0.71875 2.84375,-0.71875 2.703125,-0.5 2.421875,-0.125 2,-0.125 c -0.484375,0 -0.484375,-0.453125 -0.484375,-0.578125 0,-0.40625 0.1875,-0.90625 0.390625,-1.421875 C 1.953125,-2.265625 2,-2.359375 2,-2.46875 2,-2.84375 1.6875,-3.078125 1.34375,-3.078125 0.640625,-3.078125 0.328125,-2.125 0.328125,-2 c 0,0.078125 0.09375,0.078125 0.125,0.078125 0.09375,0 0.09375,-0.03125 0.125,-0.109375 0.15625,-0.5625 0.46875,-0.84375 0.734375,-0.84375 0.125,0 0.171875,0.078125 0.171875,0.234375 0,0.171875 -0.046875,0.3125 -0.125,0.46875 -0.375,0.96875 -0.375,1.171875 -0.375,1.359375 0,0.109375 0,0.4375 0.265625,0.65625 0.203125,0.171875 0.46875,0.21875 0.71875,0.21875 0.4375,0 0.671875,-0.234375 0.90625,-0.453125 C 3.03125,0.0625 3.484375,0.0625 3.578125,0.0625 3.8125,0.0625 4,-0.0625 4.125,-0.296875 4.28125,-0.578125 4.375,-0.96875 4.375,-1 c 0,-0.09375 -0.09375,-0.09375 -0.109375,-0.09375 -0.109375,0 -0.109375,0.03125 -0.15625,0.21875 -0.09375,0.328125 -0.21875,0.75 -0.515625,0.75 -0.171875,0 -0.234375,-0.15625 -0.234375,-0.34375 0,-0.109375 0.0625,-0.375 0.109375,-0.546875 0.046875,-0.1875 0.125,-0.46875 0.15625,-0.625 l 0.15625,-0.625 C 3.828125,-2.4375 3.90625,-2.75 3.90625,-2.78125 3.90625,-2.921875 3.796875,-3 3.671875,-3 c -0.25,0 -0.3125,0.203125 -0.359375,0.421875 z m 0,0"
             id="path53" />
        </g>
      </g>
      <g
         style="fill:#ff0000;fill-opacity:1"
         id="g57">
        <g
           id="g56"
           transform="translate(17.164,9.4650002)"
           style="fill:#ff0000;fill-opacity:1">
          <path
             style="fill:#ff0000;fill-opacity:1;stroke:none"
             d="m 3.296875,2.390625 c 0,-0.03125 0,-0.046875 -0.171875,-0.21875 C 1.890625,0.921875 1.5625,-0.96875 1.5625,-2.5 c 0,-1.734375 0.375,-3.46875 1.609375,-4.703125 0.125,-0.125 0.125,-0.140625 0.125,-0.171875 0,-0.078125 -0.03125,-0.109375 -0.09375,-0.109375 -0.109375,0 -1,0.6875 -1.59375,1.953125 -0.5,1.09375 -0.625,2.203125 -0.625,3.03125 0,0.78125 0.109375,1.984375 0.65625,3.125 C 2.25,1.84375 3.09375,2.5 3.203125,2.5 c 0.0625,0 0.09375,-0.03125 0.09375,-0.109375 z m 0,0"
             id="path55" />
        </g>
      </g>
      <g
         style="fill:#ff0000;fill-opacity:1"
         id="g59">
        <g
           id="g58"
           transform="translate(21.038,9.4650002)"
           style="fill:#ff0000;fill-opacity:1">
          <path
             style="fill:#ff0000;fill-opacity:1;stroke:none"
             d="M 3.328125,-3.015625 C 3.390625,-3.265625 3.625,-4.1875 4.3125,-4.1875 c 0.046875,0 0.296875,0 0.5,0.125 C 4.53125,-4 4.34375,-3.765625 4.34375,-3.515625 c 0,0.15625 0.109375,0.34375 0.375,0.34375 0.21875,0 0.53125,-0.171875 0.53125,-0.578125 0,-0.515625 -0.578125,-0.65625 -0.921875,-0.65625 -0.578125,0 -0.921875,0.53125 -1.046875,0.75 -0.25,-0.65625 -0.78125,-0.75 -1.078125,-0.75 -1.03125,0 -1.609375,1.28125 -1.609375,1.53125 0,0.109375 0.109375,0.109375 0.125,0.109375 0.078125,0 0.109375,-0.03125 0.125,-0.109375 0.34375,-1.0625 1,-1.3125 1.34375,-1.3125 0.1875,0 0.53125,0.09375 0.53125,0.671875 0,0.3125 -0.171875,0.96875 -0.53125,2.375 -0.15625,0.609375 -0.515625,1.03125 -0.953125,1.03125 -0.0625,0 -0.28125,0 -0.5,-0.125 0.25,-0.0625 0.46875,-0.265625 0.46875,-0.546875 0,-0.265625 -0.21875,-0.34375 -0.359375,-0.34375 -0.3125,0 -0.546875,0.25 -0.546875,0.578125 0,0.453125 0.484375,0.65625 0.921875,0.65625 0.671875,0 1.03125,-0.703125 1.046875,-0.75 0.125,0.359375 0.484375,0.75 1.078125,0.75 1.03125,0 1.59375,-1.28125 1.59375,-1.53125 0,-0.109375 -0.078125,-0.109375 -0.109375,-0.109375 -0.09375,0 -0.109375,0.046875 -0.140625,0.109375 -0.328125,1.078125 -1,1.3125 -1.3125,1.3125 -0.390625,0 -0.546875,-0.3125 -0.546875,-0.65625 0,-0.21875 0.046875,-0.4375 0.15625,-0.875 z m 0,0"
             id="path57" />
        </g>
      </g>
      <g
         style="fill:#ff0000;fill-opacity:1"
         id="g61">
        <g
           id="g60"
           transform="translate(26.732,5.849)"
           style="fill:#ff0000;fill-opacity:1">
          <path
             style="fill:#ff0000;fill-opacity:1;stroke:none"
             d="m 3.65625,-2 c 0.125,-0.0625 0.125,-0.09375 0.125,-0.125 0,-0.0625 -0.0625,-0.09375 -0.09375,-0.09375 C 3.65625,-2.21875 2.5,-2 2.3125,-1.953125 L 2.140625,-3.234375 C 2.125,-3.34375 2.125,-3.421875 2.03125,-3.421875 c -0.0625,0 -0.09375,0.0625 -0.109375,0.171875 l -0.15625,1.296875 -1.28125,-0.25 C 0.40625,-2.21875 0.390625,-2.21875 0.390625,-2.21875 c -0.046875,0 -0.109375,0.03125 -0.109375,0.09375 0,0.03125 0.015625,0.046875 0.046875,0.078125 0.015625,0.015625 1.125,0.53125 1.28125,0.59375 L 0.96875,-0.296875 C 0.921875,-0.203125 0.921875,-0.1875 0.921875,-0.1875 c 0,0.0625 0.046875,0.109375 0.09375,0.109375 0.0625,0 0.203125,-0.171875 0.46875,-0.484375 0.1875,-0.1875 0.375,-0.375 0.546875,-0.5625 0.34375,0.34375 0.84375,0.890625 0.921875,0.96875 0.0625,0.0625 0.0625,0.078125 0.109375,0.078125 0.046875,0 0.09375,-0.046875 0.09375,-0.109375 0,-0.015625 -0.09375,-0.171875 -0.140625,-0.265625 L 2.46875,-1.4375 Z m 0,0"
             id="path59" />
        </g>
      </g>
      <g
         style="fill:#ff0000;fill-opacity:1"
         id="g63">
        <g
           id="g62"
           transform="translate(31.312,9.4650002)"
           style="fill:#ff0000;fill-opacity:1">
          <path
             style="fill:#ff0000;fill-opacity:1;stroke:none"
             d="m 2.875,-2.5 c 0,-0.765625 -0.109375,-1.96875 -0.65625,-3.109375 -0.59375,-1.21875 -1.453125,-1.875 -1.546875,-1.875 -0.0625,0 -0.109375,0.046875 -0.109375,0.109375 0,0.03125 0,0.046875 0.1875,0.234375 0.984375,0.984375 1.546875,2.5625 1.546875,4.640625 0,1.71875 -0.359375,3.46875 -1.59375,4.71875 C 0.5625,2.34375 0.5625,2.359375 0.5625,2.390625 0.5625,2.453125 0.609375,2.5 0.671875,2.5 0.765625,2.5 1.671875,1.8125 2.25,0.546875 2.765625,-0.546875 2.875,-1.65625 2.875,-2.5 Z m 0,0"
             id="path61" />
        </g>
      </g>
    </g>
  </g>
  <g
     inkscape:label=""
     transform="matrix(2.8731232,0,0,2.8731232,54.272794,16.02622)"
     id="g73">
    <g
       id="g66"
       transform="matrix(0.352778,0,0,0.352778,-0.940109,-0.701146)">
      <g
         style="fill:#000000;fill-opacity:1"
         id="g3">
        <g
           id="use2"
           transform="translate(1.993,8.8000002)">
          <path
             style="stroke:none"
             d="M 6.328125,-5.765625 C 6.4375,-6.171875 6.609375,-6.46875 7.40625,-6.5 c 0.046875,0 0.171875,-0.015625 0.171875,-0.203125 0,0 0,-0.109375 -0.125,-0.109375 -0.328125,0 -0.6875,0.03125 -1.015625,0.03125 -0.34375,0 -0.71875,-0.03125 -1.046875,-0.03125 -0.0625,0 -0.171875,0 -0.171875,0.203125 C 5.21875,-6.5 5.3125,-6.5 5.390625,-6.5 c 0.578125,0.015625 0.6875,0.21875 0.6875,0.4375 0,0.03125 -0.03125,0.1875 -0.03125,0.203125 l -0.90625,3.5625 C 4.8125,-0.953125 3.65625,-0.09375 2.65625,-0.09375 c -0.671875,0 -1.203125,-0.4375 -1.203125,-1.296875 0,-0.015625 0,-0.328125 0.109375,-0.765625 L 2.515625,-6.046875 C 2.609375,-6.40625 2.625,-6.5 3.359375,-6.5 c 0.265625,0 0.34375,0 0.34375,-0.203125 0,-0.109375 -0.109375,-0.109375 -0.140625,-0.109375 -0.28125,0 -1,0.03125 -1.28125,0.03125 -0.28125,0 -1,-0.03125 -1.28125,-0.03125 -0.078125,0 -0.1875,0 -0.1875,0.203125 C 0.8125,-6.5 0.890625,-6.5 1.09375,-6.5 c 0.015625,0 0.203125,0 0.375,0.015625 0.171875,0.03125 0.265625,0.03125 0.265625,0.171875 0,0.046875 -0.109375,0.46875 -0.171875,0.703125 l -0.21875,0.875 C 1.25,-4.34375 0.78125,-2.46875 0.734375,-2.265625 0.671875,-2 0.671875,-1.84375 0.671875,-1.6875 c 0,1.203125 0.90625,1.90625 1.953125,1.90625 1.25,0 2.484375,-1.125 2.8125,-2.4375 z m 0,0"
             id="path65" />
        </g>
      </g>
    </g>
  </g>
</svg>
